<svg id="Layer_1" data-name="Layer 1" xmlns="http://www.w3.org/2000/svg" viewBox="0 0 64 64"><defs><style>.cls-1{stroke:#000;stroke-miterlimit:10;stroke-width:0.25px;}</style></defs><title>delivery-slot</title><path class="cls-1" d="M22.32478,42.996a8.96839,8.96839,0,0,1-.1468,2.87757,6.47309,6.47309,0,0,1-12.72-.81653,6.23488,6.23488,0,0,1,.52739-3.35181c.19043-.424.14136-.5732-.321-.67738a1.62151,1.62151,0,0,1-.9998-2.75767,8.88592,8.88592,0,0,1,7.55651-3.51154c1.35409.04092,1.34377.06754,1.81645-1.16376,1.28313-3.34242,2.577-6.68069,3.9795-9.97553.32462-.7626.324-.76286-.47457-.67A3.16929,3.16929,0,0,1,17.832,20.87767a5.28352,5.28352,0,0,1,.355-5.21242,2.38556,2.38556,0,0,1,1.975-1.24455,10.056,10.056,0,0,1,2.36539.03113,5.04952,5.04952,0,0,1,3.55753,2.43193c.12135.19519.14552.643.43717.5195.34647-.14675.7704-.36765.76244-.88588a5.30239,5.30239,0,0,1,.12683-1.4139,4.02544,4.02544,0,0,1,.685-1.49983,1.715,1.715,0,0,1,2.80232-.0827,4.96722,4.96722,0,0,1-.03415,5.71079,1.75228,1.75228,0,0,1-2.782-.10409c-.14834-.17333-.198-.59539-.52084-.44269-.35735.169-.73118.3992-.70122.92644a17.6695,17.6695,0,0,1-.29159,3.77659,70.04917,70.04917,0,0,1-1.75928,6.9535,12.28915,12.28915,0,0,0-.17483,6.103,6.0702,6.0702,0,0,0,.82117,1.8977,1.45408,1.45408,0,0,0,1.28667.71629c1.46436-.00088,2.92919.02163,4.39294-.00835A3.04959,3.04959,0,0,0,34.07227,36.116a7.64724,7.64724,0,0,0-.51885-3.13722,3.29531,3.29531,0,0,0-1.31955-1.68205,3.30958,3.30958,0,0,1-.56277-5.21079,2.44857,2.44857,0,0,1,1.60664-.67615q5.87042-.19222,11.74122-.3725a4.02507,4.02507,0,0,1,1.34827.15784,3.20573,3.20573,0,0,1,2.06549,4.66453c-.1148.24955-.556.5765-.1864.80512.42958.26569.84149.78342,1.48958.48a3.24835,3.24835,0,0,1,1.78567-.3117,3.41879,3.41879,0,0,1,2.97908,4.55768,2.86743,2.86743,0,0,0,.045,2.14716,10.86616,10.86616,0,0,1,.68974,4.01155,1.99082,1.99082,0,0,1-2.21247,2.2008c-.46969.00746-1.07805-.20727-1.36917.10119-.24544.26-.1386.85439-.184,1.30114a6.469,6.469,0,0,1-12.78088.45241,4.38886,4.38886,0,0,1-.11176-1.237c.05358-.51573-.18636-.63657-.65636-.62983-1.48386.02128-2.96822.0077-4.45239.00769-2.6715,0-5.343-.0058-8.01449.00279A4.22524,4.22524,0,0,1,22.32478,42.996Zm16.34084-.8393q7.09226,0,14.1845-.00091c.77137-.00031.813-.03716.8026-.80309-.06248-4.61439-2.797-7.942-6.9408-9.62643a1.10211,1.10211,0,0,0-.40531-.06855c-3.69949-.004-7.399-.00021-11.09845-.00924-.41328-.001-.47609.12776-.31284.48891a10.12422,10.12422,0,0,1,.727,2.80157A4.82482,4.82482,0,0,1,30.73,40.64947c-1.30565.00873-2.616-.06635-3.91574.02188a2.67234,2.67234,0,0,1-2.57389-1.35542,7.47919,7.47919,0,0,1-.7361-1.35243A11.87113,11.87113,0,0,1,22.95,31.6041c.29666-1.98409,1.04206-3.85169,1.51266-5.791a21.67926,21.67926,0,0,0,.81115-6.26817,3.59505,3.59505,0,0,0-3.40758-3.59319c-.42381-.00263-.57785.08687-.42547.54056a8.55843,8.55843,0,0,1,.47068,2.97223c-.01805.66868-.24914.99959-.73844,1.008-.485.0083-.74105-.32679-.77811-.97807a8.912,8.912,0,0,0-.47078-2.61583c-.05931-.1602-.05647-.41754-.24736-.43635-.2271-.02239-.27885.24652-.37143.40845a3.25876,3.25876,0,0,0-.38565,2.06642c.23375,1.83058.83714,2.74734,2.80708,2.43567,1.6727-.26464,2.5519.90923,1.88641,2.47984-1.57421,3.71526-3.02505,7.47917-4.48414,11.24027a1.12915,1.12915,0,0,0,.1637,1.24384c1.26429,1.64744,2.52659,3.29734,3.74374,4.97952a1.87118,1.87118,0,0,0,1.68191.87317C29.36737,42.1443,34.01653,42.15684,38.66562,42.15673Zm1.06356-12.01626q3.05261,0,6.10519-.002c.213-.00036.464.06887.62491-.1058a2.39136,2.39136,0,0,0,.76256-2.03382,1.70944,1.70944,0,0,0-1.361-1.33155,4.39073,4.39073,0,0,0-1.52855-.03993q-5.32794.18029-10.656.35823c-.96112.03266-1.46671.52788-1.44921,1.40758a1.57126,1.57126,0,0,0,1.51547,1.746Q36.73584,30.14537,39.72918,30.14047ZM18.16394,42.33577c.95512,2.10141.7273,3.531-.65077,4.44572A2.93857,2.93857,0,0,1,13.77,46.36728a2.85517,2.85517,0,0,1-.79206-2.395,3.08961,3.08961,0,0,1,1.47252-2.2088c-.76433-.1093-1.37968-.15345-1.97146-.29568-.47959-.11527-.68967.09659-.87926.466a4.73358,4.73358,0,0,0,.30842,5.26068,4.66632,4.66632,0,0,0,4.8272,1.96183,4.89534,4.89534,0,0,0,3.93858-5.95928c-.08667-.32632-.22485-.53281-.56948-.5804C19.483,42.53082,18.86256,42.43736,18.16394,42.33577Zm2.81036-1.16662c-.10364-.18365-.13388-.255-.17917-.31489-1.02489-1.35653-2.12644-2.65581-3.05071-4.08747a.93905.93905,0,0,0-.69428-.39008,6.82254,6.82254,0,0,0-2.41815.02153A7.61876,7.61876,0,0,0,10.04048,39.019c-.29235.33921-.23707.47477.22057.53531,1.11577.1476,2.22551.34022,3.33865.50827C16.01816,40.42763,18.43721,40.7887,20.9743,41.16915Zm27.95364,2.57663c-.85388-.00006-.85388-.00006-.9446.79975a2.94529,2.94529,0,0,1-3.5265,2.64305,2.91432,2.91432,0,0,1-2.32941-2.7753c-.01-.24906.12175-.56755-.30047-.66105-1.40021-.31009-1.89558.17039-1.592,1.56436.0042.01927.01147.03786.01593.05709a4.91884,4.91884,0,0,0,9.69306-.44608C50.10181,43.82154,50.03674,43.74586,48.92794,43.74578Zm-31.70236.58759A1.33135,1.33135,0,0,0,15.909,42.95223a1.37179,1.37179,0,1,0-.00749,2.74357A1.31638,1.31638,0,0,0,17.22558,44.33337Zm27.859-.58693c-.23683,0-.47531.018-.71015-.00362-.54264-.05-.69434.22771-.65715.71384a1.33049,1.33049,0,0,0,1.15713,1.23188,1.39093,1.39093,0,0,0,1.44844-.89663c.27352-.72767.063-1.04015-.7054-1.04582C45.43981,43.74478,45.26218,43.7459,45.08455,43.74644ZM30.2554,16.34517a4.458,4.458,0,0,0-.36636-1.53949c-.248-.45161-.48115-.47925-.696-.03148a3.52862,3.52862,0,0,0,.00331,3.18205c.19842.41215.44.39178.673-.01631A4.28425,4.28425,0,0,0,30.2554,16.34517Zm20.775,16.0897a18.83589,18.83589,0,0,1,1.85627,1.94627c.04775.0619.11968.12039.20305.06616.09613-.06252.07585-.17119.07566-.26762A1.95637,1.95637,0,0,0,51.03041,32.43487Z"/></svg>