<svg id="Layer_1" data-name="Layer 1" xmlns="http://www.w3.org/2000/svg" viewBox="0 0 64 64"><title>delivery-address</title><path d="M55.19419,52.56705c-.57223.52575-.72928.547-1.44712.20208-2.87051-1.37926-5.74439-2.75161-8.60776-4.14552a1.10337,1.10337,0,0,0-.94548-.00605c-3.81293,1.39307-7.631,2.77226-11.43865,4.1795a2.04563,2.04563,0,0,1-1.52224-.00718c-3.86495-1.42694-7.74-2.82647-11.60753-4.24651a.85008.85008,0,0,0-.72592.07473Q14.555,50.71077,10.2062,52.79442a1.53724,1.53724,0,0,1-.59642.20087.78643.78643,0,0,1-.81671-.87755c.04541-.85781.12908-1.71386.20871-2.56953.16625-1.78635.34119-3.5719.51113-5.35791q.30633-3.21941.60961-6.43909c.19453-2.0867.38213-4.17405.57468-6.261q.18285-1.98183.37146-3.96314a1.0069,1.0069,0,0,1,.57986-.85457q4.29908-2.23452,8.59017-4.48437a1.17759,1.17759,0,0,1,1.08343-.04118c.78973.34088,1.59.65726,2.38117.9949.56576.24144.77633.67938.57307,1.14713-.19731.45408-.65819.58416-1.23243.34649-.37651-.15583-.755-.30733-1.12747-.47232-.24615-.109-.386-.11143-.40495.22384q-.17129,3.02628-.36624,6.05123c-.16915,2.66371-.34728,5.32686-.51729,7.99052q-.15129,2.37045-.28939,4.74175c-.06655,1.114-.11761,2.22913-.1988,3.34206a.564.564,0,0,0,.45028.65909q5.04753,1.81728,10.086,3.65969c.4914.17854.4963.17566.49641-.34843q.00155-7.49574.00194-14.99149a3.0244,3.0244,0,0,1,.03306-.58575.80847.80847,0,0,1,1.59127.00534,3.06473,3.06473,0,0,1,.03219.58589q.00233,7.45045.00144,14.90091c0,.61131.0033.61678.58643.405q5.00028-1.81583,10.00115-3.63a.56732.56732,0,0,0,.44455-.66418c-.15651-2.317-.29758-4.635-.44173-6.95277-.09923-1.59553-.19312-3.1914-.29319-4.78688q-.21381-3.40874-.43235-6.81718c-.07243-1.159-.149-2.318-.19856-3.47813-.01577-.36869-.11446-.456-.45612-.293-.39447.18829-.80246.35-1.21088.50682a.81227.81227,0,0,1-1.10426-.40252.7881.7881,0,0,1,.45367-1.08271c.88433-.388,1.78192-.74576,2.67436-1.11522a.98709.98709,0,0,1,.871.08177q4.3351,2.26315,8.67064,4.52547a.97464.97464,0,0,1,.53906.83337q.23409,2.47676.46413,4.95391.30143,3.19716.6051,6.39412.29228,3.13011.57649,6.261.27723,2.99512.55981,5.98974a.88061.88061,0,0,0,.05246.17231Zm-1.74743-2.12359c-.00651-.06-.01364-.11986-.01944-.17989-.23036-2.38481-.46595-4.76912-.68935-7.15459-.22762-2.43059-.43914-4.8627-.66523-7.29344-.23026-2.47563-.47518-4.94991-.69772-7.42622a.65654.65654,0,0,0-.38492-.59911q-3.214-1.667-6.41806-3.35323c-.34931-.1842-.44463-.1093-.41745.2713.09659,1.35293.18006,2.7068.26535,4.06052q.27294,4.33208.54215,8.66438.28377,4.60347.55468,9.20772a.53924.53924,0,0,0,.33683.5241q3.63377,1.73741,7.26013,3.49025C53.36829,50.77824,53.48592,50.75189,53.44676,50.44346ZM19.84008,25.00358c.0183-.778.01694-.78056-.63214-.44148-1.81834.9499-3.63348,1.90594-5.45379,2.852-1.08917.56608-1.08655.56027-1.19969,1.77614q-.49214,5.28867-.99265,10.57655-.4971,5.28822-.9916,10.57668c-.01169.12581-.08279.29034.05836.374.11419.06763.22715-.04681.33213-.09719,2.35275-1.12906,4.70064-2.26836,7.05969-3.38405a.747.747,0,0,0,.47653-.76269c.04045-1.1294.123-2.25737.19442-3.38557.14083-2.226.28755-4.45153.42728-6.67755.10292-1.63967.19449-3.28005.29854-4.91965C19.55555,29.31,19.70114,27.12967,19.84008,25.00358Z"/><path d="M32.02161,11.16122A7.72469,7.72469,0,0,1,39.673,17.481a6.89307,6.89307,0,0,1-.90719,4.876q-2.94014,4.94245-5.89818,9.87425c-.54622.913-1.18258.91509-1.72558.00615-1.943-3.25244-3.85042-6.5267-5.833-9.75482a7.361,7.361,0,0,1,2.73335-10.25426A8.19453,8.19453,0,0,1,32.02161,11.16122Zm-.11214,1.65542a4.37108,4.37108,0,0,0-1.02682.09751,5.7996,5.7996,0,0,0-4.21574,8.633c1.66908,2.853,3.38435,5.679,5.08116,8.51577.24912.41649.2601.41681.50411.00881q2.55655-4.27476,5.10751-8.55287a5.186,5.186,0,0,0,.74494-3.43145A6.05628,6.05628,0,0,0,31.90947,12.81664Z"/><path d="M32.01538,15.04331a3.91231,3.91231,0,1,1-3.92524,3.87431A3.94035,3.94035,0,0,1,32.01538,15.04331Zm-.065,6.16527a2.254,2.254,0,1,0-2.20092-2.31727A2.21507,2.21507,0,0,0,31.95042,21.20858Z"/></svg>