<svg id="Layer_1" data-name="Layer 1" xmlns="http://www.w3.org/2000/svg" viewBox="0 0 64 64"><title>shipping-method</title><path d="M5.06143,29.88632a1.36683,1.36683,0,0,1,1.32845-.60408q4.42467.00315,8.84933.00051c.75922-.00017.76017-.00136.76041-.77439q.00088-2.98292.001-5.96584c.00074-.73656.09341-.85992.785-1.13824q9.22039-3.71039,18.43674-7.4308a1.93,1.93,0,0,1,1.5717-.00143Q46.1,17.80184,55.42089,21.595a.85383.85383,0,0,1,.6018.90359q-.0124,10.88765.00132,21.77531a1.16849,1.16849,0,0,1-.82,1.20793Q47.97063,48.47171,40.74527,51.481c-1.36149.56553-2.72653,1.12287-4.08083,1.70516a1.5944,1.5944,0,0,1-1.33482.01325Q26.04095,49.328,16.74034,45.48525a1.23576,1.23576,0,0,1-.8432-1.26188c-.00011-.94459-.01643-1.88952.00512-2.8336.0095-.41609-.14563-.5388-.55086-.53646-2.45254.01419-4.90521.00931-7.35783.00453-.6345-.00123-1.01588-.29979-1.06893-.806a.92866.92866,0,0,1,1.03841-1.042c1.72341-.00975,3.44691-.0039,5.17038-.00427.74573-.00016,1.49188-.01509,2.237.00592.37847.01067.54428-.106.53062-.506-.0226-.6621-.01434-1.32565-.00352-1.98834.00521-.31882-.124-.44157-.44359-.43791-.94445.0108-1.88956.01941-2.83357-.00445a.923.923,0,0,1-.86142-1.40995.94673.94673,0,0,1,.88973-.43751c.91141.00511,1.82324-.01424,2.73416.00745.39272.00936.531-.13136.518-.51783-.02118-.629-.02526-1.26009.00112-1.88871.01792-.42724-.16387-.53148-.55975-.52989-2.94973.01191-5.89953.00633-8.84931.00612a1.54786,1.54786,0,0,1-1.43146-.72192Zm49.12874,3.976h-.02232q0-4.67285-.00026-9.3457c-.00015-.73131-.0033-.73517-.6605-.46123q-8.0494,3.35516-16.10113,6.70475a.67742.67742,0,0,0-.49161.73567q.01658,9.49479.00821,18.98965c.00006.57541.00574.58178.54074.35965q8.077-3.3536,16.15655-6.701a.808.808,0,0,0,.57971-.88648C54.18155,40.126,54.19017,36.99411,54.19017,33.86231ZM35.05784,41.02519c0-3.18214-.005-6.36431.00673-9.54641a.64085.64085,0,0,0-.462-.70638c-1.06415-.4167-2.11307-.87224-3.16868-1.31082q-6.56319-2.72685-13.12632-5.45385c-.27536-.1145-.50473-.21719-.50126.25372q.01722,2.33674.00045,4.6737c-.00217.34973.15.46616.47976.46381a10.01809,10.01809,0,0,1,1.23965.04749A.87371.87371,0,0,1,20.41,30.386a.91005.91005,0,0,1-.9306.907,7.94125,7.94125,0,0,1-1.14266.00576c-.425-.03042-.54833.15237-.5329.55144.02368.61231.02555,1.227-.00052,1.83915-.01755.4121.13127.54663.54282.54119,1.4748-.01948,2.95-.008,4.42507-.00735,1.11042.00049,2.221-.00766,3.3312.00778a.91017.91017,0,0,1,.95471.88116.9536.9536,0,0,1-.89481.95571,4.85505,4.85505,0,0,1-.54633.01242c-2.41976.00072-4.83955.00736-7.25923-.00615-.398-.00222-.57175.10638-.55371.5309.02743.64521.01884,1.29272.00287,1.9387-.00845.34177.11791.4701.46425.46463.9776-.01543,1.95563-.00915,2.93345-.00319.71.00432,1.111.34184,1.11381.91981.00285.574-.40713.926-1.108.931-.97779.007-1.95582.01192-2.93344-.00256-.34-.005-.4793.11146-.47013.45913a17.61,17.61,0,0,1-.00772,1.88832c-.04434.54471.18478.77787.66573.97654q8.01579,3.311,16.01557,6.66085c.56092.23375.57791.22634.57809-.366Q35.05893,45.7487,35.05784,41.02519ZM19.49343,22.43188a1.246,1.246,0,0,0,.15137.095c2.2617.9429,4.5259,1.87985,6.78353,2.83236a.88466.88466,0,0,0,.75394-.06051q7.7298-3.27394,15.461-6.54466c.11143-.0472.27-.0475.29861-.24052-.08545-.0434-.169-.09423-.25863-.1301-2.10579-.84316-4.21385-1.68069-6.31653-2.53154a.93811.93811,0,0,0-.76.01652q-7.85721,3.16039-15.71786,6.31226C19.75735,22.2335,19.59167,22.24121,19.49343,22.43188Zm9.72149,4.06119c.27286.13011.41768.20666.56814.26978,1.90938.80108,3.8232,1.59179,5.72642,2.40723a1.21288,1.21288,0,0,0,1.0359-.01191q7.76539-3.2635,15.539-6.50752c.14249-.05968.32776-.07429.4052-.293-.15233-.06691-.29954-.13618-.45016-.197-1.95058-.788-3.90645-1.56327-5.84886-2.37088a1.43641,1.43641,0,0,0-1.22211.00649Q39.03012,22.34038,33.077,24.85C31.82906,25.3795,30.58211,25.91134,29.21492,26.49307Z"/></svg>