<?xml version="1.0" encoding="utf-8"?>
<!-- Generator: Adobe Illustrator 23.0.5, SVG Export Plug-In . SVG Version: 6.00 Build 0)  -->
<svg version="1.1" id="Layer_1" xmlns="http://www.w3.org/2000/svg" xmlns:xlink="http://www.w3.org/1999/xlink" x="0px" y="0px"
	 viewBox="0 0 24 24" style="enable-background:new 0 0 24 24;" xml:space="preserve">
<title>delete</title>
<path d="M12.1,1.5c0.5,0.1,1,0.3,1.4,0.6c0.5,0.4,0.8,0.9,0.9,1.4c0,0.1,0.1,0.2,0.2,0.2c0,0,0,0,0,0c1,0,2,0,3.1,0
	c0.3,0,0.7,0,1,0.1c0.8,0.3,1.3,1.1,1.2,2c-0.1,0.9-0.8,1.5-1.6,1.6c-0.1,0-0.2,0-0.3,0c-4.1,0-8.3,0-12.4,0C4.6,7.6,3.8,7,3.6,6.1
	C3.4,5,4.1,4,5.1,3.8c0.1,0,0.2,0,0.3,0c1.1-0.1,2.2,0,3.4,0c0.2,0,0.3-0.1,0.3-0.2c0,0,0,0,0,0c0.3-1,1.2-1.8,2.2-2c0,0,0,0,0.1,0
	H12.1z M11.8,4.7c-1.2,0-2.3,0-3.5,0c-0.9,0-1.9,0-2.8,0c-0.4,0-0.7,0.2-0.9,0.6C4.5,5.6,4.5,6,4.8,6.3C5,6.5,5.4,6.6,5.7,6.6
	c4,0,8.1,0,12.1,0c0.1,0,0.3,0,0.4,0C18.7,6.5,19,6,18.9,5.5c-0.1-0.5-0.5-0.8-1-0.8C15.9,4.7,13.8,4.7,11.8,4.7z M11.7,3.7
	c0.5,0,1,0,1.5,0c0.2,0,0.2,0,0.2-0.2c-0.3-0.7-0.9-1.1-1.6-1.1c-0.7,0-1.4,0.5-1.7,1.1c-0.1,0.1,0,0.2,0.1,0.2
	C10.7,3.7,11.2,3.7,11.7,3.7z"/>
<path d="M7.5,22.1C6.9,22,6.4,21.7,6,21.3c-0.5-0.5-0.8-1.2-0.8-2c0-2.8,0-7.5,0-10.3c0-0.5,0.3-0.7,0.7-0.5C6,8.6,6.1,8.7,6.1,8.8
	c0,0.1,0,0.3,0,0.4c0,2.7,0,7.3,0,10c0,0.5,0.1,1,0.5,1.4c0.3,0.4,0.8,0.6,1.3,0.6c2.6,0,5.1,0,7.7,0c1,0,1.7-0.8,1.7-1.8
	c0-2.7,0-7.5,0-10.2c0-0.1,0-0.2,0-0.2c0-0.3,0.2-0.5,0.5-0.5c0,0,0,0,0.1,0c0.2,0,0.4,0.2,0.4,0.4c0,0,0,0,0,0.1c0,1.6,0,3.1,0,4.7
	c0,1.2,0,4.4,0,5.7c0,1.4-0.9,2.5-2.3,2.8c0,0,0,0-0.1,0L7.5,22.1z"/>
<path d="M14.5,14.5c0-1.2,0-2.5,0-3.7c0-0.1,0-0.2,0-0.3c0-0.2,0.3-0.4,0.5-0.4c0.2,0,0.4,0.2,0.4,0.4c0,0.1,0,0.2,0,0.3
	c0,2.4,0,4.8,0,7.3c0,0.1,0,0.2,0,0.3c0,0.2-0.2,0.4-0.5,0.4c-0.2,0-0.4-0.2-0.5-0.4c0-0.1,0-0.2,0-0.3
	C14.5,16.9,14.5,15.7,14.5,14.5z"/>
<path d="M11.3,14.5c0-1.3,0-2.6,0-3.9c0-0.2,0.1-0.5,0.4-0.5c0,0,0.1,0,0.1,0c0.2,0,0.4,0.2,0.4,0.4c0,0.1,0,0.1,0,0.2
	c0,2.5,0,5,0,7.5c0,0.1,0,0.2,0,0.3c-0.1,0.2-0.3,0.3-0.5,0.3c-0.2,0-0.4-0.2-0.4-0.5C11.3,17.1,11.3,15.8,11.3,14.5z"/>
<path d="M8.9,14.5c0,1.3,0,2.6,0,3.9c0,0.3-0.2,0.5-0.5,0.5c-0.1,0-0.1,0-0.2,0c-0.1,0-0.3-0.2-0.3-0.3c0-0.1,0-0.2,0-0.3
	c0-2.5,0-5,0-7.5c0-0.1,0-0.1,0-0.2c0-0.3,0.2-0.5,0.5-0.5c0,0,0,0,0,0c0.2,0,0.4,0.2,0.5,0.4c0,0,0,0,0,0.1
	C8.9,11.9,8.9,13.2,8.9,14.5z"/>
</svg>
