<svg id="Layer_1" data-name="Layer 1" xmlns="http://www.w3.org/2000/svg" viewBox="0 0 24 24"><defs><style>.cls-1{fill:#c70000;}</style></defs><title>delete-icon</title><path class="cls-1" d="M20.66,4.72H15.8V3.91a2.43,2.43,0,0,0-2.43-2.43H10.14A2.43,2.43,0,0,0,7.71,3.91v.81H2.85a.81.81,0,0,0,0,1.62h.81V18.48a4.06,4.06,0,0,0,4.05,4.05H15.8a4.06,4.06,0,0,0,4.05-4.05V6.34h.81a.81.81,0,1,0,0-1.62ZM9.33,3.91a.81.81,0,0,1,.81-.81h3.23a.81.81,0,0,1,.81.81v.81H9.33Zm8.9,14.57a2.43,2.43,0,0,1-2.43,2.43H7.71a2.43,2.43,0,0,1-2.43-2.43V6.34h13ZM11,16.86V10.39a.81.81,0,1,1,1.61,0v6.47a.81.81,0,1,1-1.61,0Zm-3.24,0V10.39a.81.81,0,0,1,1.62,0v6.47a.81.81,0,1,1-1.62,0Zm6.47,0V10.39a.81.81,0,1,1,1.62,0v6.47a.81.81,0,1,1-1.62,0Z"/></svg>